<svg xmlns="http://www.w3.org/2000/svg" xmlns:svg="http://www.w3.org/2000/svg" id="svg419" width="100" height="100" version="1.1" viewBox="0 0 100 100"><g id="g415" fill="#000" style="fill-rule:evenodd;fill:#dfe4ea"><path id="path411" d="m 96,95 h 4 v 1 h -4 v 4 h -1 v -4 h -9 v 4 h -1 v -4 h -9 v 4 h -1 v -4 h -9 v 4 h -1 v -4 h -9 v 4 h -1 v -4 h -9 v 4 h -1 v -4 h -9 v 4 h -1 v -4 h -9 v 4 h -1 v -4 h -9 v 4 H 15 V 96 H 0 V 95 H 15 V 86 H 0 V 85 H 15 V 76 H 0 V 75 H 15 V 66 H 0 V 65 H 15 V 56 H 0 V 55 H 15 V 46 H 0 V 45 H 15 V 36 H 0 V 35 H 15 V 26 H 0 V 25 H 15 V 16 H 0 V 15 H 15 V 0 h 1 v 15 h 9 V 0 h 1 v 15 h 9 V 0 h 1 v 15 h 9 V 0 h 1 v 15 h 9 V 0 h 1 v 15 h 9 V 0 h 1 v 15 h 9 V 0 h 1 v 15 h 9 V 0 h 1 v 15 h 9 V 0 h 1 v 15 h 4 v 1 h -4 v 9 h 4 v 1 h -4 v 9 h 4 v 1 h -4 v 9 h 4 v 1 h -4 v 9 h 4 v 1 h -4 v 9 h 4 v 1 h -4 v 9 h 4 v 1 h -4 v 9 h 4 v 1 h -4 z m -1,0 v -9 h -9 v 9 z m -10,0 v -9 h -9 v 9 z m -10,0 v -9 h -9 v 9 z m -10,0 v -9 h -9 v 9 z m -10,0 v -9 h -9 v 9 z m -10,0 v -9 h -9 v 9 z m -10,0 v -9 h -9 v 9 z m -10,0 v -9 h -9 v 9 z M 16,85 h 9 v -9 h -9 z m 10,0 h 9 v -9 h -9 z m 10,0 h 9 v -9 h -9 z m 10,0 h 9 v -9 h -9 z m 10,0 h 9 v -9 h -9 z m 10,0 h 9 v -9 h -9 z m 10,0 h 9 v -9 h -9 z m 10,0 h 9 v -9 h -9 z m 9,-10 v -9 h -9 v 9 z m -10,0 v -9 h -9 v 9 z m -10,0 v -9 h -9 v 9 z m -10,0 v -9 h -9 v 9 z m -10,0 v -9 h -9 v 9 z m -10,0 v -9 h -9 v 9 z m -10,0 v -9 h -9 v 9 z m -10,0 v -9 h -9 v 9 z M 16,65 h 9 v -9 h -9 z m 10,0 h 9 v -9 h -9 z m 10,0 h 9 v -9 h -9 z m 10,0 h 9 v -9 h -9 z m 10,0 h 9 v -9 h -9 z m 10,0 h 9 v -9 h -9 z m 10,0 h 9 v -9 h -9 z m 10,0 h 9 v -9 h -9 z m 9,-10 v -9 h -9 v 9 z m -10,0 v -9 h -9 v 9 z m -10,0 v -9 h -9 v 9 z m -10,0 v -9 h -9 v 9 z m -10,0 v -9 h -9 v 9 z m -10,0 v -9 h -9 v 9 z m -10,0 v -9 h -9 v 9 z m -10,0 v -9 h -9 v 9 z M 16,45 h 9 v -9 h -9 z m 10,0 h 9 v -9 h -9 z m 10,0 h 9 v -9 h -9 z m 10,0 h 9 v -9 h -9 z m 10,0 h 9 v -9 h -9 z m 10,0 h 9 v -9 h -9 z m 10,0 h 9 v -9 h -9 z m 10,0 h 9 v -9 h -9 z m 9,-10 v -9 h -9 v 9 z m -10,0 v -9 h -9 v 9 z m -10,0 v -9 h -9 v 9 z m -10,0 v -9 h -9 v 9 z m -10,0 v -9 h -9 v 9 z m -10,0 v -9 h -9 v 9 z m -10,0 v -9 h -9 v 9 z m -10,0 v -9 h -9 v 9 z M 16,25 h 9 v -9 h -9 z m 10,0 h 9 v -9 h -9 z m 10,0 h 9 v -9 h -9 z m 10,0 h 9 v -9 h -9 z m 10,0 h 9 v -9 h -9 z m 10,0 h 9 v -9 h -9 z m 10,0 h 9 v -9 h -9 z m 10,0 h 9 v -9 h -9 z" opacity=".5" style="fill:#dfe4ea"/><path id="path413" d="M 6,5 V 0 H 5 V 5 H 0 v 1 h 5 v 94 H 6 V 6 h 94 V 5 Z" style="fill:#dfe4ea"/></g></svg>