<svg xmlns="http://www.w3.org/2000/svg" xmlns:svg="http://www.w3.org/2000/svg" id="svg8" x="0" y="0" enable-background="new 0 0 1000 1000" version="1.1" viewBox="0 0 1000 1000" xml:space="preserve"><metadata id="metadata2">Svg Vector Icons : http://www.onlinewebfonts.com/icon</metadata><g id="g6" style="fill:#2f3542;fill-opacity:1"><path id="path4" d="M504,537.4c62.2-39.2,99-104.8,99-180.8c0-123.2-102.5-226.9-222.3-226.9C258.7,129.8,162,233.4,162,356.6c0,76,35.7,141.6,88.7,180.8C110.2,589.2,10,719.4,10,870.2h743.9C753.9,719.4,653.7,589.2,504,537.4L504,537.4z M651.4,356.6c0,64.5-26.5,130.1-71.4,172.7c138.2,66.8,221.1,195.8,221.1,340.9H990c0-122.1-81.8-229.2-196.9-269.5c44.9-33.4,74.9-96.7,74.9-146.3c0-102.5-77.2-183.1-180.8-183.1c-17.3,0-33.4,2.3-47.2,8.1C643.4,300.2,651.4,330.1,651.4,356.6z" style="fill:#2f3542;fill-opacity:1"/></g></svg>